<mxfile host="app.diagrams.net" modified="2024-07-17T05:54:06.891Z" agent="Mozilla/5.0 (Windows NT 10.0; Win64; x64) AppleWebKit/537.36 (KHTML, like Gecko) Chrome/126.0.0.0 Safari/537.36" version="24.7.0" etag="x7K99oVuTnsbm4Y7qTFB" type="github">
  <diagram name="第 1 页" id="UqgBkJ77MrcYdmm3xTei">
    <mxGraphModel>
      <root>
        <mxCell id="0" />
        <mxCell id="1" parent="0" />
      </root>
    </mxGraphModel>
  </diagram>
</mxfile>
